<?xml version="1.0" encoding="utf-8"?>
<!-- Generator: Adobe Illustrator 19.2.1, SVG Export Plug-In . SVG Version: 6.00 Build 0)  -->
<svg version="1.1" id="Layer_1" xmlns="http://www.w3.org/2000/svg" xmlns:xlink="http://www.w3.org/1999/xlink" x="0px" y="0px"
	 viewBox="0 0 32 32" style="enable-background:new 0 0 32 32;" xml:space="preserve">
<style type="text/css">
	.st0{fill:#FFFFFF;}
</style>
<g>
	<path class="st0" d="M21.5,16c0,3-2.4,5.5-5.5,5.5S10.4,19,10.4,16c0-0.4,0-0.7,0.1-1H9v7.2c0,0.4,0.3,0.7,0.7,0.7h12.6
		c0.4,0,0.7-0.3,0.7-0.7V15h-1.6C21.5,15.3,21.5,15.7,21.5,16z"/>
	<path class="st0" d="M0,0v32h32V0H0z M25,23c0,1.1-0.9,2-2,2H9c-1.1,0-2-0.9-2-2V9c0-1.1,0.9-2,2-2h14c1.1,0,2,0.9,2,2V23z"/>
	<path class="st0" d="M16,19.5c1.9,0,3.5-1.5,3.5-3.5s-1.6-3.5-3.5-3.5s-3.5,1.6-3.5,3.5S14.1,19.4,16,19.5z"/>
	<path class="st0" d="M22.3,9h-1.6C20.3,9,20,9.3,20,9.7v1.6c0,0.4,0.3,0.7,0.7,0.7h1.6c0.4,0,0.7-0.3,0.7-0.7V9.7
		C23,9.3,22.7,9,22.3,9z"/>
</g>
</svg>
