<?xml version="1.0" encoding="utf-8"?>
<!-- Generator: Adobe Illustrator 19.2.1, SVG Export Plug-In . SVG Version: 6.00 Build 0)  -->
<svg version="1.1" id="Layer_1" xmlns="http://www.w3.org/2000/svg" xmlns:xlink="http://www.w3.org/1999/xlink" x="0px" y="0px"
	 viewBox="0 0 32 32" style="enable-background:new 0 0 32 32;" xml:space="preserve">
<style type="text/css">
	.st0{fill:#FFFFFF;}
</style>
<path class="st0" d="M0,0v32h32V0H0z M8.5,23.5V13h3.2v10.4H8.5z M10.1,11.8c-1,0-1.7-0.7-1.7-1.6c0-0.9,0.7-1.6,1.7-1.6
	s1.7,0.7,1.7,1.6C11.9,11,11.2,11.8,10.1,11.8z M20.4,23.5v-5.8c0-1.3-0.5-2.3-1.6-2.3c-0.9,0-1.4,0.6-1.7,1.2
	C17,16.8,17,17,17,17.3v6h-3.3v-7.1c0-1.3,0-2.4-0.1-3.3h2.8l0.1,1.4h0.1c0.4-0.7,1.5-1.7,3.2-1.7c2.1,0,3.7,1.4,3.7,4.5l0.1,6.3
	H20.4z"/>
</svg>
