<?xml version="1.0" encoding="utf-8"?>
<!-- Generator: Adobe Illustrator 19.2.1, SVG Export Plug-In . SVG Version: 6.00 Build 0)  -->
<svg version="1.1" id="Layer_1" xmlns="http://www.w3.org/2000/svg" xmlns:xlink="http://www.w3.org/1999/xlink" x="0px" y="0px"
	 viewBox="0 0 32 32" style="enable-background:new 0 0 32 32;" xml:space="preserve">
<style type="text/css">
	.st0{fill:#FFFFFF;}
</style>
<g>
	<path class="st0" d="M13,18c-0.1,0-0.2,0-0.3,0c-0.7,0.1-1.4,0.3-1.9,0.8c-0.5,0.4-0.7,1-0.7,1.6c0.1,1.2,1.3,1.9,2.9,1.8
		c1.5-0.1,2.5-1,2.5-2.2C15.5,18.8,14.5,18,13,18z"/>
	<path class="st0" d="M0,0v32h32V0H0z M15,22.9c-1,0.5-2.1,0.5-2.5,0.5c-0.1,0-0.1,0-0.1,0s0,0-0.1,0c-0.7,0-3.9-0.1-3.9-3.1
		c0-2.9,3.5-3.1,4.6-3.1c-0.6-0.8-0.5-1.7-0.5-1.7c-0.1,0-0.1,0-0.2,0c-0.4,0-1.2-0.1-1.9-0.5c-0.8-0.5-1.2-1.4-1.2-2.7
		c0-3.5,3.9-3.7,3.9-3.7L17,8.7c0,0.4-0.8,0.5-1.3,0.6c-0.2,0-0.5,0.1-0.6,0.1c1,0.5,1.1,1.3,1.1,2.6c0,1.4-0.5,2.1-1.1,2.6
		c-0.4,0.3-0.6,0.6-0.6,0.9s0.4,0.7,0.8,1.1c0.7,0.6,1.7,1.5,1.7,3C17,21.2,16.5,22.3,15,22.9z M23.5,16.1H21v2.5h-1.6v-2.5H17v-1.6
		h2.5V12H21v2.5h2.5V16.1z"/>
	<path class="st0" d="M13.5,14.6c0.9-0.3,1.4-1.7,1.1-3c-0.4-1.4-1.1-1.8-2.1-1.8c-0.1,0-0.2,0-0.3,0c-0.4,0.1-0.8,0.5-1,1
		c-0.2,0.6-0.2,1.1,0,1.8c0.3,1.2,1.1,2,2,2C13.2,14.6,13.3,14.6,13.5,14.6z"/>
</g>
</svg>
