<?xml version="1.0" encoding="utf-8"?>
<!-- Generator: Adobe Illustrator 19.2.1, SVG Export Plug-In . SVG Version: 6.00 Build 0)  -->
<svg version="1.1" id="Layer_1" xmlns="http://www.w3.org/2000/svg" xmlns:xlink="http://www.w3.org/1999/xlink" x="0px" y="0px"
	 viewBox="0 0 32 32" style="enable-background:new 0 0 32 32;" xml:space="preserve">
<style type="text/css">
	.st0{fill:#FFFFFF;}
</style>
<path class="st0" d="M0,0v32h32V0H0z M22.1,12.8c0,0.1,0,0.3,0,0.4c0,4.2-3.2,9-9,9c-1.8,0-3.4-0.5-4.8-1.4c0.2,0,0.5,0,0.8,0
	c1.5,0,2.8-0.5,3.9-1.3c-1.4,0-2.5-0.9-2.9-2.2c0.2,0,0.4,0.1,0.6,0.1c0.3,0,0.6,0,0.8-0.1C10.1,17,9,15.7,9,14.2
	c0.4,0.2,0.9,0.4,1.4,0.4C9.6,14,9,13.1,9,12c0-0.6,0.2-1.1,0.4-1.6c1.6,1.9,3.9,3.2,6.5,3.3c-0.1-0.2-0.1-0.5-0.1-0.7
	c0-1.7,1.4-3.2,3.2-3.2c0.9,0,1.7,0.4,2.3,1c0.7-0.1,1.4-0.4,2-0.8c-0.2,0.7-0.7,1.4-1.4,1.7c0.6-0.1,1.2-0.2,1.8-0.5
	C23.3,11.8,22.7,12.4,22.1,12.8z"/>
</svg>
