<?xml version="1.0" encoding="utf-8"?>
<!-- Generator: Adobe Illustrator 19.2.1, SVG Export Plug-In . SVG Version: 6.00 Build 0)  -->
<svg version="1.1" id="Layer_1" xmlns="http://www.w3.org/2000/svg" xmlns:xlink="http://www.w3.org/1999/xlink" x="0px" y="0px"
	 viewBox="0 0 32 32" style="enable-background:new 0 0 32 32;" xml:space="preserve">
<style type="text/css">
	.st0{fill:#FFFFFF;}
</style>
<path class="st0" d="M0,0v32h32V0H0z M11.5,22.5c-1.1,0-1.9-0.9-1.9-1.9c0-1.1,0.9-1.9,1.9-1.9c1.1,0,1.9,0.9,1.9,1.9
	C13.4,21.7,12.5,22.5,11.5,22.5z M16.5,22.5c0-4-3-6.9-7-6.9v-2c5,0,9,3.9,9,8.9H16.5z M20.5,22.5c0-6-5-10.9-11-10.9V9.5
	c7,0,13,6,13,13H20.5z"/>
</svg>
