<?xml version="1.0" encoding="utf-8"?>
<!-- Generator: Adobe Illustrator 19.2.1, SVG Export Plug-In . SVG Version: 6.00 Build 0)  -->
<svg version="1.2" baseProfile="tiny" id="Layer_1" xmlns="http://www.w3.org/2000/svg" xmlns:xlink="http://www.w3.org/1999/xlink"
	 x="0px" y="0px" viewBox="0 0 101.9 32" xml:space="preserve">
<path fill="#FFFFFF" d="M0,0v32h101.9V0H0z M19.5,13.2c0,0.1,0,0.3,0,0.4c0,3.7-2.8,7.9-7.9,7.9c-1.6,0-3-0.4-4.2-1.2
	c0.2,0,0.4,0,0.7,0c1.3,0,2.5-0.4,3.4-1.1c-1.2,0-2.2-0.8-2.6-1.9c0.2,0,0.4,0.1,0.5,0.1c0.3,0,0.5,0,0.7-0.1
	c-1.2-0.3-2.2-1.4-2.2-2.7C8.3,14.8,8.7,15,9.1,15c-0.7-0.5-1.2-1.3-1.2-2.3c0-0.5,0.2-1,0.4-1.4c1.4,1.7,3.4,2.8,5.7,2.9
	c-0.1-0.2-0.1-0.4-0.1-0.6c0-1.5,1.2-2.8,2.8-2.8c0.8,0,1.5,0.4,2,0.9c0.6-0.1,1.2-0.4,1.8-0.7c-0.2,0.6-0.6,1.2-1.2,1.5
	c0.5-0.1,1.1-0.2,1.6-0.4C20.5,12.3,20,12.8,19.5,13.2z"/>
</svg>
