<?xml version="1.0" encoding="utf-8"?>
<!-- Generator: Adobe Illustrator 20.1.0, SVG Export Plug-In . SVG Version: 6.00 Build 0)  -->
<svg version="1.2" baseProfile="tiny" id="Layer_1" xmlns="http://www.w3.org/2000/svg" xmlns:xlink="http://www.w3.org/1999/xlink"
	 x="0px" y="0px" viewBox="0 0 13.5 10.7" xml:space="preserve">
<path fill="#AEA293" d="M12.1,2.4c0,0.1,0,0.3,0,0.4c0,3.7-2.8,7.9-7.9,7.9c-1.6,0-3-0.4-4.2-1.2c0.2,0,0.4,0,0.7,0
	c1.3,0,2.5-0.4,3.4-1.1c-1.2,0-2.2-0.8-2.6-1.9c0.2,0,0.4,0.1,0.5,0.1c0.3,0,0.5,0,0.7-0.1C1.5,6.2,0.5,5.1,0.5,3.8
	C0.9,4,1.3,4.2,1.7,4.2C1,3.7,0.5,2.9,0.5,1.9c0-0.5,0.2-1,0.4-1.4c1.4,1.7,3.4,2.8,5.7,2.9C6.5,3.2,6.5,3,6.5,2.8
	C6.5,1.3,7.7,0,9.3,0c0.8,0,1.5,0.4,2,0.9c0.6-0.1,1.2-0.4,1.8-0.7c-0.2,0.6-0.6,1.2-1.2,1.5c0.5-0.1,1.1-0.2,1.6-0.4
	C13.1,1.5,12.6,2,12.1,2.4z"/>
</svg>
