<?xml version="1.0" encoding="utf-8"?>
<!-- Generator: Adobe Illustrator 20.1.0, SVG Export Plug-In . SVG Version: 6.00 Build 0)  -->
<svg version="1.2" baseProfile="tiny" id="Layer_1" xmlns="http://www.w3.org/2000/svg" xmlns:xlink="http://www.w3.org/1999/xlink"
	 x="0px" y="0px" viewBox="0 0 101.9 32" xml:space="preserve">
<g>
	<path fill="#FFFFFF" d="M13.1,16.1c-1,0-1.4-1.7-1.6-2.6h-1.3c0.1,0.7,0.6,3.9,2.9,3.9s2.8-3.3,2.9-3.9h-1.3
		C14.5,14.4,14,16.1,13.1,16.1z"/>
	<polygon fill="#FFFFFF" points="9.5,10.3 8.2,11.7 17.9,11.7 16.6,10.3 	"/>
	<path fill="#FFFFFF" d="M0.1,0v32h101.8V0H0.1z M19.1,12c-0.1,0.4-1.3,9.7-1.4,9.9c0,0.2-0.2,0.4-0.5,0.4H8.8
		c-0.2,0-0.4-0.2-0.5-0.4c0-0.2-1.3-9.5-1.4-9.9s0.1-0.7,0.3-0.8C7.5,11,8.7,10,8.9,9.8s0.5-0.2,0.8-0.2h6.8c0.2,0,0.6,0,0.8,0.2
		c0.2,0.2,1.4,1.2,1.6,1.4C19,11.4,19.2,11.6,19.1,12z"/>
</g>
</svg>
