<?xml version="1.0" encoding="utf-8"?>
<!-- Generator: Adobe Illustrator 19.2.1, SVG Export Plug-In . SVG Version: 6.00 Build 0)  -->
<svg version="1.2" baseProfile="tiny" id="Layer_1" xmlns="http://www.w3.org/2000/svg" xmlns:xlink="http://www.w3.org/1999/xlink"
	 x="0px" y="0px" viewBox="0 0 101.9 32" xml:space="preserve">
<g>
	<path fill="#FFFFFF" d="M11.9,14.9h0.4c0.8,0,1.5-0.2,2-0.5c0.4-0.3,0.7-0.8,0.7-1.5c0-0.4-0.1-0.8-0.4-1c-0.3-0.2-0.8-0.3-1.4-0.3
		h-0.5c-0.3,0-0.7,0.3-0.8,0.6l-0.4,2.1C11.3,14.6,11.6,14.8,11.9,14.9z"/>
	<path fill="#FFFFFF" d="M0,0v32h101.9V0H0z M7.3,19.8l2.2-9.7c0.1-0.3,0.4-0.6,0.8-0.6h3.3c0.7,0,1.3,0.1,1.9,0.1
		c0.6,0.1,1,0.3,1.4,0.5c0.4,0.3,0.6,0.6,0.8,1c0.2,0.4,0.3,0.8,0.3,1.4c0,1.3-0.5,2.4-1.6,3.1S13.8,17,11.9,17h-0.4
		c-0.3,0-0.7,0.3-0.8,0.6l-0.6,2.3c-0.1,0.3-0.4,0.6-0.7,0.6H7.8C7.4,20.4,7.2,20.2,7.3,19.8z M18.4,17.8c-1.1,0.8-2.6,1.2-4.6,1.2
		h-0.4c-0.3,0-0.7,0.3-0.8,0.6l-0.6,2.3c-0.1,0.3-0.4,0.6-0.8,0.6H9.7c-0.3,0-0.5-0.3-0.4-0.6l0.1-0.4h1c0.3,0,0.7-0.3,0.8-0.6
		l0.5-2.4c0.1-0.3,0.4-0.6,0.8-0.6h0.5c1.9,0,3.5-0.4,4.6-1.2c1.1-0.8,1.6-1.9,1.6-3.1c0-0.5-0.1-0.9-0.2-1.2c0,0,0,0,0,0
		c0,0,0,0,0,0c0-0.1,0-0.1-0.1-0.2c0.1,0,0.1,0.1,0.1,0.2c0,0,0,0,0,0c0.4,0.2,0.7,0.5,0.9,0.9c0.2,0.4,0.3,0.8,0.3,1.4
		C20,15.9,19.5,17,18.4,17.8z"/>
</g>
</svg>
